<svg xmlns="http://www.w3.org/2000/svg" xmlns:xlink="http://www.w3.org/1999/xlink" width="500" zoomAndPan="magnify" viewBox="0 0 375 374.999991" height="500" preserveAspectRatio="xMidYMid meet" version="1.0"><defs><clipPath id="d73a62e593"><path d="M 115.640625 111.648438 L 253.359375 111.648438 L 253.359375 249.363281 L 115.640625 249.363281 Z M 115.640625 111.648438 " clip-rule="nonzero"/></clipPath><clipPath id="748a530ec8"><path d="M 184.5 111.648438 C 146.472656 111.648438 115.640625 142.476562 115.640625 180.507812 C 115.640625 218.535156 146.472656 249.363281 184.5 249.363281 C 222.527344 249.363281 253.359375 218.535156 253.359375 180.507812 C 253.359375 142.476562 222.527344 111.648438 184.5 111.648438 Z M 184.5 111.648438 " clip-rule="nonzero"/></clipPath><clipPath id="feaec43b4a"><path d="M 136.128906 131.136719 L 182 131.136719 L 182 230 L 136.128906 230 Z M 136.128906 131.136719 " clip-rule="nonzero"/></clipPath><clipPath id="dbae67c3b0"><path d="M 181.5 129.636719 L 233.328125 129.636719 L 233.328125 240.636719 L 181.5 240.636719 Z M 181.5 129.636719 " clip-rule="nonzero"/></clipPath></defs><g clip-path="url(#d73a62e593)"><g clip-path="url(#748a530ec8)"><path fill="#00bfa8" d="M 115.640625 111.648438 L 253.359375 111.648438 L 253.359375 249.363281 L 115.640625 249.363281 Z M 115.640625 111.648438 " fill-opacity="1" fill-rule="nonzero"/></g></g><g clip-path="url(#feaec43b4a)"><path fill="#ffffff" d="M 176.207031 131.527344 C 177.042969 132.191406 178.261719 132.457031 179.136719 133.164062 C 179.613281 133.550781 180.039062 134.203125 180.222656 134.792969 C 180.644531 136.144531 180.671875 138.3125 180.136719 139.660156 C 179.898438 140.265625 179.523438 140.695312 179.699219 141.238281 C 179.820312 141.605469 180.199219 142.046875 180.398438 142.386719 C 180.785156 143.058594 181.238281 143.714844 181.558594 144.421875 C 181.976562 145.347656 182.101562 146.515625 181.609375 147.441406 C 181.277344 148.066406 180.238281 149.488281 179.523438 149.691406 C 180.140625 150.144531 180.675781 150.5625 180.902344 151.320312 C 181.003906 151.652344 181.148438 152.402344 181.039062 152.730469 C 180.886719 153.179688 180.671875 153.042969 180.402344 153.34375 C 180.046875 153.738281 180.136719 153.734375 180.277344 154.402344 C 180.390625 154.9375 180.5 155.457031 180.652344 155.984375 C 180.753906 156.328125 180.875 156.675781 180.925781 157.035156 C 181.140625 158.621094 181.089844 160.410156 181.039062 162.007812 C 180.992188 163.546875 179.976562 166.539062 178.285156 166.949219 C 178.523438 167.601562 178.9375 168.269531 179.214844 168.917969 C 179.515625 169.621094 179.78125 170.332031 180.085938 171.03125 C 180.339844 171.609375 180.507812 172.171875 180.664062 172.773438 C 180.773438 173.210938 180.875 173.601562 180.917969 174.054688 C 181.082031 175.949219 181.011719 177.886719 181.019531 179.785156 C 181.027344 181.203125 181.308594 182.828125 180.6875 184.105469 C 180.292969 184.914062 179.820312 185.453125 179.238281 186.085938 C 180.554688 187.285156 181.652344 189.839844 181.21875 191.605469 C 181.121094 191.992188 180.890625 192.363281 180.660156 192.683594 C 180.167969 193.363281 180.140625 193.40625 180.425781 194.1875 C 180.761719 195.117188 181.011719 195.949219 181.246094 196.917969 C 181.574219 198.269531 181.777344 199.164062 181.804688 200.613281 C 181.832031 202.207031 182.078125 203.914062 181.527344 205.445312 C 181.253906 206.203125 180.558594 207.089844 180.488281 207.871094 C 180.410156 208.726562 181.398438 209.589844 181.710938 210.367188 C 182 211.101562 182.007812 212.035156 181.984375 212.808594 C 181.9375 214.488281 181.1875 216.007812 180.929688 217.65625 C 180.824219 218.34375 180.46875 219.4375 180.59375 220.128906 C 180.613281 220.230469 180.96875 220.46875 181.011719 220.582031 C 181.113281 220.867188 181.042969 221.027344 181.082031 221.300781 C 181.117188 221.542969 181.183594 221.785156 181.214844 222.027344 C 181.414062 223.605469 181.265625 225.148438 180.28125 226.441406 C 179.851562 227.007812 179.28125 227.40625 178.667969 227.746094 C 178.324219 227.9375 178.003906 228.113281 177.628906 228.234375 C 177.480469 228.285156 177.019531 228.125 176.972656 228.148438 C 176.578125 228.34375 176.25 228.953125 175.792969 229.199219 C 175.507812 229.347656 175.234375 229.453125 174.925781 229.535156 C 173.628906 229.867188 171.941406 229.808594 170.625 229.578125 C 169.308594 229.351562 167.738281 228.558594 166.554688 227.9375 C 165.59375 227.429688 165.144531 226.960938 164.566406 226.148438 C 164.199219 225.636719 163.707031 225.222656 163.238281 224.796875 C 162.914062 224.5 162.507812 223.890625 162.144531 223.683594 C 161.277344 223.195312 159.394531 223.996094 158.300781 224.125 C 156.429688 224.351562 154.683594 224.152344 153.023438 223.261719 C 152.230469 222.835938 151.417969 222.601562 150.789062 221.921875 C 149.960938 221.027344 149.636719 219.855469 149.121094 218.789062 C 148.644531 217.792969 148.902344 215.796875 147.988281 215.3125 C 147.667969 215.144531 147.101562 215.054688 146.75 214.929688 C 145.382812 214.449219 144.589844 213.910156 143.644531 212.785156 C 143.003906 212.027344 142.550781 211.160156 141.996094 210.335938 C 140.78125 208.53125 140.179688 206.914062 140.429688 204.707031 C 140.503906 204.046875 140.6875 203.421875 140.777344 202.761719 C 140.867188 202.117188 141.265625 201.410156 141.230469 200.945312 C 141.195312 200.457031 140.84375 199.960938 140.777344 199.449219 C 140.695312 198.820312 141.148438 197.863281 140.957031 197.332031 C 140.773438 196.820312 139.734375 196.078125 139.355469 195.726562 C 138.847656 195.253906 138.375 194.761719 137.917969 194.238281 C 137.015625 193.203125 136.585938 192.078125 136.417969 190.71875 C 136.128906 188.371094 137.304688 186.03125 138.753906 184.277344 C 137.046875 183.335938 136.246094 182.375 136.554688 180.289062 C 136.714844 179.210938 137.160156 177.921875 137.617188 176.96875 C 138.019531 176.121094 138.566406 175.480469 139.144531 174.738281 C 139.335938 174.625 139.527344 174.511719 139.722656 174.402344 C 139.695312 174.097656 139.675781 173.789062 139.660156 173.484375 C 139.636719 173.019531 139.617188 172.554688 139.613281 172.085938 C 139.605469 171.175781 139.835938 170.542969 140.203125 169.699219 C 140.542969 168.917969 140.914062 168.371094 141.597656 167.832031 C 142.289062 167.292969 142.375 167.425781 142.15625 166.527344 C 141.890625 165.425781 141.597656 164.355469 141.550781 163.214844 C 141.449219 160.710938 141.535156 158.722656 142.859375 156.519531 C 143.703125 155.117188 144.917969 154.265625 146.148438 153.21875 C 147.28125 152.25 147.441406 150.769531 147.546875 149.3125 C 147.652344 147.882812 147.808594 145.9375 148.761719 144.796875 C 149.289062 144.164062 149.933594 143.859375 150.722656 143.742188 C 151.476562 143.625 152.746094 143.957031 152.839844 142.859375 C 152.894531 142.214844 152.441406 141.394531 152.429688 140.707031 C 152.410156 139.402344 152.871094 138.160156 153.589844 137.082031 C 155.652344 133.996094 158.84375 132.949219 162.320312 134.28125 C 162.910156 134.507812 163.898438 135.390625 164.523438 135.277344 C 165.101562 135.171875 165.664062 134.234375 166.195312 133.929688 C 167.3125 133.285156 168.652344 132.746094 169.949219 132.632812 C 170.445312 132.589844 170.539062 132.601562 170.917969 132.367188 C 171.226562 132.175781 171.417969 131.9375 171.761719 131.773438 C 172.542969 131.398438 173.375 131.394531 174.21875 131.347656 C 174.820312 131.316406 175.679688 131.136719 176.207031 131.527344 M 174.988281 132.1875 C 172 131.308594 170.261719 134.390625 170.015625 136.820312 C 169.960938 137.382812 169.949219 137.667969 169.703125 138.128906 C 169.609375 138.300781 169.382812 138.238281 169.285156 138.488281 C 168.804688 139.71875 170.320312 140.589844 171.292969 140.53125 C 171.476562 140.519531 173.015625 139.984375 172.9375 140.734375 C 172.910156 141.011719 171.933594 141.042969 171.699219 141.082031 C 170.640625 141.261719 169.34375 141.488281 168.464844 140.703125 C 167.71875 140.03125 167.515625 138.1875 168.199219 137.367188 C 168.394531 137.132812 168.851562 137.0625 169 136.855469 C 169.210938 136.558594 169.171875 135.863281 169.265625 135.519531 C 169.480469 134.746094 169.757812 134.070312 170.171875 133.394531 C 168.105469 133.808594 165.902344 134.65625 164.851562 136.636719 C 164.230469 137.808594 164.460938 138.894531 164.609375 140.125 C 164.6875 140.765625 164.933594 141.769531 164.84375 142.398438 C 164.78125 142.820312 164.324219 143.550781 163.828125 143.070312 C 163.472656 142.726562 163.757812 140.574219 163.671875 139.996094 C 163.621094 139.648438 163.640625 139.25 163.558594 138.917969 C 163.378906 138.1875 163.195312 138.492188 162.5 138.511719 C 161.964844 138.527344 160.425781 138.28125 161.253906 137.78125 C 161.6875 137.519531 162.535156 137.828125 163.019531 137.65625 C 163.550781 137.46875 163.289062 137.617188 163.554688 137.230469 C 163.667969 137.058594 163.929688 136.472656 163.984375 136.265625 C 163.484375 136.117188 163.203125 135.777344 162.734375 135.542969 C 162.214844 135.277344 161.605469 135.035156 161.046875 134.855469 C 159.78125 134.457031 158.332031 134.414062 157.089844 134.96875 C 155.621094 135.625 154.289062 137.453125 153.628906 138.878906 C 152.914062 140.425781 153.414062 141.785156 153.949219 143.320312 C 154.332031 143.027344 159.195312 140.417969 159.125 141.761719 C 159.101562 142.21875 157.808594 142.292969 157.542969 142.394531 C 157.234375 142.507812 156.871094 142.726562 156.570312 142.878906 C 155.902344 143.21875 155.921875 143.222656 155.734375 143.886719 C 155.433594 144.941406 155.347656 145.964844 153.960938 145.089844 C 153.523438 146.175781 153.460938 147.019531 153.355469 148.132812 C 153.324219 148.460938 153.34375 149.082031 152.796875 148.886719 C 152.339844 148.726562 152.5625 147.601562 152.5625 147.214844 C 152.5625 146.730469 152.585938 146.328125 152.683594 145.871094 C 152.746094 145.589844 153.230469 144.488281 153.152344 144.390625 C 152.984375 144.175781 151.835938 144.472656 151.574219 144.527344 C 149.523438 144.941406 148.644531 146.34375 148.445312 148.414062 C 148.382812 149.070312 148.441406 149.734375 148.410156 150.394531 C 148.371094 151.242188 148.191406 151.488281 148.785156 151.917969 C 149.210938 152.226562 149.222656 151.964844 149.441406 152.460938 C 149.53125 152.660156 149.894531 153.515625 149.894531 153.636719 C 149.886719 154.714844 148.472656 153.636719 147.914062 153.453125 C 146.953125 153.140625 146.054688 154.464844 145.292969 155.117188 C 143.75 156.433594 142.773438 158.117188 142.484375 160.164062 C 142.21875 162.050781 142.367188 164.074219 143.023438 165.875 C 143.390625 166.882812 143.742188 167.839844 144.503906 168.613281 C 144.699219 168.808594 145.460938 169.261719 144.832031 169.5625 C 144.507812 169.722656 143.96875 169.28125 143.726562 169.066406 C 143.488281 168.859375 143.164062 168.191406 142.871094 168.15625 C 142.589844 168.117188 141.824219 168.929688 141.679688 169.101562 C 141.019531 169.867188 140.652344 171.050781 140.582031 172.058594 C 140.472656 173.625 141.058594 175.625 142.546875 176.386719 C 142.839844 175.246094 143.152344 174.105469 143.742188 173.078125 C 144.089844 172.464844 144.925781 171.105469 145.714844 170.980469 C 147.472656 170.707031 145.589844 172.125 145.292969 172.472656 C 144.570312 173.3125 144.101562 174.40625 143.777344 175.453125 C 143.234375 177.21875 143.535156 179.230469 144.730469 180.691406 C 145.15625 181.210938 146.398438 181.765625 146.558594 182.382812 C 146.777344 183.21875 145.589844 182.953125 145.105469 182.609375 C 144.496094 182.175781 144.058594 181.390625 143.648438 180.785156 C 143.363281 180.371094 143.132812 180.085938 142.933594 179.597656 C 142.765625 179.191406 142.691406 177.953125 142.503906 177.699219 C 142.421875 177.589844 141.789062 177.40625 141.617188 177.269531 C 141.289062 177.007812 141.023438 176.648438 140.765625 176.320312 C 140.296875 175.726562 140.328125 175.386719 139.652344 175.894531 C 138.4375 176.808594 137.285156 179.472656 137.523438 180.992188 C 137.710938 182.195312 138.902344 183.222656 139.925781 183.789062 C 140.742188 184.238281 141.820312 184.820312 142.746094 184.894531 C 143.375 184.945312 144.679688 184.363281 145.203125 184.890625 C 145.480469 185.171875 145.375 185.835938 145.53125 186.21875 C 145.730469 186.695312 146.097656 187.140625 146.382812 187.566406 C 146.910156 188.351562 147.371094 189.171875 148.113281 189.777344 C 149.363281 190.800781 150.863281 190.613281 152.175781 191.324219 C 153.71875 192.160156 151.394531 192.109375 150.828125 192.042969 C 147.148438 191.589844 146.382812 188.144531 143.949219 186.039062 C 143.332031 185.507812 142.9375 185.753906 142.140625 185.660156 C 141.339844 185.566406 140.53125 184.960938 139.726562 184.925781 C 139.179688 184.902344 139.246094 185.027344 138.855469 185.605469 C 138.632812 185.941406 138.375 186.28125 138.199219 186.648438 C 137.902344 187.257812 137.683594 188.039062 137.535156 188.707031 C 136.898438 191.527344 138.574219 194.953125 141.320312 196.035156 C 142.140625 196.359375 142.320312 196.324219 142.242188 197.242188 C 142.160156 198.183594 141.789062 198.8125 142.035156 199.792969 C 142.304688 200.867188 143.121094 201.792969 144.179688 202.128906 C 145.074219 202.410156 146.050781 202.125 146.921875 202.441406 C 146.949219 203.828125 142.574219 202.71875 142.050781 202.378906 C 140.652344 205.703125 141.707031 208.5 143.667969 211.347656 C 145.578125 214.128906 148.832031 214.882812 152.03125 214.285156 C 153.503906 214.011719 154.890625 213.015625 155.925781 211.964844 C 156.226562 211.664062 157.886719 210.003906 157.523438 211.519531 C 157.402344 212.023438 156.589844 212.679688 156.242188 212.996094 C 155.664062 213.523438 154.621094 214.097656 154.164062 214.695312 C 153.628906 215.40625 154.261719 216.5 154.875 217.054688 C 155.609375 217.714844 156.421875 217.820312 157.363281 217.828125 C 157.71875 217.832031 159.21875 217.664062 159.394531 218.167969 C 159.851562 219.476562 155.8125 218.960938 155.230469 218.734375 C 153.527344 218.066406 152.984375 216.703125 153.105469 214.988281 C 151.734375 215.332031 150.726562 215.386719 149.316406 215.378906 C 149.777344 216.929688 149.871094 218.328125 150.671875 219.769531 C 151.402344 221.089844 152.203125 221.894531 153.605469 222.46875 C 157.117188 223.914062 161.953125 223.371094 164.8125 220.714844 C 163.679688 220.535156 162.96875 219.808594 162.375 218.898438 C 161.730469 217.914062 161.914062 216.652344 161.316406 215.6875 C 161.328125 215.183594 161.136719 215.066406 160.75 215.339844 C 160.535156 215.375 160.320312 215.386719 160.101562 215.371094 C 159.6875 215.402344 159.074219 215.453125 158.691406 215.273438 C 158.40625 215.140625 157.621094 214.339844 157.945312 214.085938 C 158.101562 213.960938 159.046875 214.269531 159.273438 214.269531 C 159.625 214.265625 159.992188 214.183594 160.335938 214.113281 C 160.972656 213.972656 161.542969 213.78125 162.085938 213.417969 C 162.460938 213.164062 163.128906 212.308594 163.613281 212.304688 C 164.550781 212.296875 163.992188 213.226562 163.742188 213.636719 C 162.960938 214.933594 162.316406 216.089844 162.851562 217.664062 C 162.992188 218.082031 163.316406 218.527344 163.636719 218.816406 C 163.953125 219.101562 165.273438 220.058594 165.605469 220.015625 C 165.738281 219.996094 166.441406 219.300781 166.515625 219.1875 C 166.8125 218.742188 166.792969 218.609375 166.625 218.03125 C 166.363281 217.121094 165.953125 216.050781 166.636719 215.1875 C 167.382812 215.699219 167.296875 217.269531 167.519531 218.078125 C 167.6875 218.683594 167.984375 219.242188 168.402344 219.710938 C 169.167969 220.566406 170.203125 220.953125 171.214844 221.421875 C 172.066406 221.816406 172.542969 222.4375 171.226562 222.398438 C 169.832031 222.359375 168.15625 221.28125 167.398438 220.136719 C 166.683594 220.863281 165.605469 221.261719 164.792969 221.910156 C 164.058594 222.5 163.382812 222.8125 162.59375 223.273438 C 164.800781 224.550781 165.96875 226.84375 168.417969 227.753906 C 170.40625 228.496094 172.433594 229.007812 174.515625 228.273438 C 175.242188 228.015625 175.863281 227.65625 176.269531 226.984375 C 176.523438 226.5625 176.59375 226.050781 176.917969 225.664062 C 177.390625 226.074219 177.402344 226.769531 177.375 227.34375 C 178.847656 226.261719 180.054688 225.382812 180.296875 223.449219 C 180.5 221.84375 179.816406 220.34375 179.730469 218.75 C 178.605469 219.488281 177.679688 220.261719 176.402344 220.675781 C 175.277344 221.039062 175.34375 220.335938 176.160156 219.804688 C 177.132812 219.171875 178.152344 218.804688 179.035156 218.003906 C 179.988281 217.140625 180.316406 216.929688 180.445312 215.59375 C 177.980469 216.464844 176.109375 216.792969 173.425781 216.394531 C 171.042969 216.039062 168.859375 213.800781 168.71875 211.378906 C 167.105469 211.71875 166.011719 211.757812 165.070312 210.234375 C 164.226562 208.871094 164.347656 207.519531 164.40625 206 C 162.324219 207.421875 160.816406 207.941406 158.324219 207.878906 C 156.324219 207.828125 154.136719 207.671875 152.292969 206.863281 C 150.449219 206.058594 149.476562 204.300781 148.660156 202.535156 C 147.601562 200.230469 146.339844 197.65625 147.378906 195.113281 C 145.550781 195.050781 143.589844 193.648438 142.828125 191.976562 C 142.65625 191.601562 142.640625 190.773438 142.425781 190.496094 C 142.160156 190.152344 141.488281 190.273438 140.949219 190.238281 C 140.285156 190.199219 139.441406 190.144531 139.191406 189.40625 C 139.101562 189.136719 139.144531 188.351562 139.457031 188.171875 C 139.917969 187.914062 141.019531 189.015625 141.835938 188.722656 C 142.828125 188.367188 142.734375 187.253906 143.523438 186.769531 C 144.5 186.171875 144.402344 187.574219 144.25 188.242188 C 144.027344 189.21875 143.128906 189.644531 143.414062 190.632812 C 143.585938 191.234375 143.855469 191.804688 144.246094 192.292969 C 144.949219 193.171875 145.949219 193.652344 146.988281 194.003906 C 147.386719 194.136719 148.472656 194.261719 148.566406 194.78125 C 148.589844 194.910156 148.128906 195.828125 148.085938 196.105469 C 147.976562 196.835938 147.949219 197.53125 148.082031 198.261719 C 148.449219 200.296875 149.46875 202.71875 150.699219 204.382812 C 151.519531 205.484375 152.839844 206.03125 154.121094 206.40625 C 156.921875 207.222656 159.863281 207.386719 162.515625 206.082031 C 163.714844 205.488281 164.429688 204.734375 165.378906 203.832031 C 165.671875 203.550781 166.300781 202.859375 166.484375 203.652344 C 166.582031 204.082031 165.738281 204.933594 165.589844 205.339844 C 165.179688 206.488281 165.039062 208.558594 165.960938 209.53125 C 166.792969 210.410156 168.128906 209.964844 169.167969 210.214844 C 170.167969 210.457031 169.773438 211.4375 170.070312 212.304688 C 170.363281 213.144531 170.96875 213.976562 171.6875 214.507812 C 173.082031 215.535156 175.246094 215.75 176.917969 215.597656 C 178.507812 215.453125 180.699219 214.34375 181.039062 212.605469 C 181.277344 211.367188 180.839844 210.496094 179.984375 209.710938 C 179.898438 210.074219 179.570312 211.046875 179.179688 211.226562 C 178.410156 211.578125 178.5 210.8125 178.652344 210.292969 C 178.964844 209.226562 179.421875 208.15625 179.847656 207.121094 C 180.910156 204.542969 181.324219 202.039062 180.925781 199.238281 C 180.695312 197.613281 180.160156 195.785156 179.460938 194.328125 C 179.207031 193.804688 179.019531 193.292969 178.691406 192.8125 C 178.488281 192.511719 177.246094 191.535156 177.246094 191.261719 C 177.246094 190.875 178.097656 190.910156 178.3125 190.960938 C 179.058594 191.132812 179.15625 191.816406 179.628906 192.316406 C 179.871094 191.5625 180.230469 190.847656 180.160156 190.042969 C 180.085938 189.171875 179.515625 187.578125 178.691406 187.121094 C 178.1875 186.839844 178.425781 186.945312 177.898438 187.140625 C 177.53125 187.277344 177.167969 187.53125 176.824219 187.722656 C 176.042969 188.15625 175.265625 188.480469 174.417969 188.761719 C 174 188.898438 173.601562 188.980469 173.199219 189.144531 C 172.894531 189.269531 172.4375 189.6875 172.085938 189.65625 C 171.292969 189.578125 171.753906 189.101562 172.1875 188.789062 C 172.742188 188.390625 173.324219 188.175781 173.976562 187.929688 C 177.359375 186.65625 180.242188 184.746094 180.246094 180.820312 C 180.25 178.039062 180.589844 174.59375 179.558594 171.960938 C 179.074219 170.730469 178.574219 169.464844 177.992188 168.273438 C 177.523438 167.316406 176.261719 166.03125 176.210938 164.941406 C 176.761719 164.785156 177.570312 165.570312 177.769531 166.011719 C 180.585938 164.566406 180.324219 160.503906 180.125 157.910156 C 180.046875 156.875 179.65625 156.121094 179.351562 155.167969 C 179.171875 154.609375 179.136719 153.835938 179.152344 153.253906 C 179.167969 152.613281 179.644531 151.859375 179.585938 151.277344 C 179.441406 149.882812 176.515625 148.917969 175.386719 148.570312 C 174.234375 148.214844 173.035156 148.089844 171.839844 148.285156 C 170.230469 148.550781 168.613281 149.671875 166.949219 149.398438 C 166.898438 148.667969 168.570312 148.464844 169.027344 148.316406 C 169.910156 148.03125 170.777344 147.777344 171.707031 147.617188 C 172.75 147.4375 173.789062 147.324219 174.828125 147.582031 C 175.746094 147.8125 176.617188 148.15625 177.453125 148.582031 C 178.863281 149.292969 179.375 148.605469 180.128906 147.429688 C 181.339844 145.550781 180.519531 144.296875 179.460938 142.621094 C 178.800781 141.574219 178.160156 140.710938 177.128906 139.96875 C 176.550781 139.550781 175.8125 139.292969 175.269531 138.851562 C 174.84375 138.503906 174.25 137.453125 175.082031 137.46875 C 175.453125 137.476562 176.324219 138.382812 176.640625 138.605469 C 177.40625 139.144531 178.148438 139.691406 178.847656 140.316406 C 179.652344 138.746094 179.675781 136.632812 179.054688 135.003906 C 178.347656 133.167969 176.675781 132.777344 174.988281 132.1875 C 174.847656 132.148438 175.257812 132.28125 174.988281 132.1875 Z M 174.988281 132.1875 " fill-opacity="1" fill-rule="nonzero"/></g><path fill="#ffffff" d="M 164.53125 144.421875 C 163.890625 145.644531 162.847656 146.007812 162.441406 147.480469 C 162.109375 148.691406 162.027344 150.101562 163.101562 150.953125 C 163.65625 151.390625 165.304688 152.238281 166.019531 152.191406 C 166.417969 152.164062 167.558594 150.695312 167.933594 150.976562 C 168.488281 151.394531 166.972656 152.917969 166.816406 153.222656 C 166.53125 153.789062 166.460938 154.738281 165.980469 155.171875 C 164.757812 156.285156 165.636719 153.359375 165.78125 152.949219 C 164.570312 152.863281 163.46875 152.894531 162.441406 152.109375 C 161.980469 151.753906 161.855469 151.371094 161.375 151.253906 C 160.921875 151.144531 160.269531 151.382812 159.773438 151.324219 C 159.019531 151.242188 158.296875 151.078125 158.085938 150.261719 C 157.847656 149.347656 158.265625 149.648438 158.945312 149.847656 C 159.691406 150.0625 160.445312 150.113281 161.222656 150.179688 C 161.054688 149.269531 161.0625 147.921875 161.3125 147.027344 C 161.585938 146.058594 163.34375 143.980469 164.53125 144.421875 C 164.394531 144.6875 164.355469 144.355469 164.53125 144.421875 Z M 164.53125 144.421875 " fill-opacity="1" fill-rule="nonzero"/><path fill="#ffffff" d="M 174.433594 151.105469 C 174.316406 151.617188 173.9375 151.984375 173.746094 152.457031 C 173.582031 152.863281 173.582031 153.335938 173.382812 153.726562 C 173.882812 153.703125 175.414062 153.433594 175.808594 153.960938 C 176.40625 154.761719 174.6875 154.445312 174.339844 154.429688 C 172.710938 154.34375 170.574219 154.554688 169.257812 155.582031 C 167.785156 156.734375 166.960938 158.566406 166.148438 160.191406 C 165.542969 161.410156 164.691406 162.132812 163.796875 163.101562 C 163.046875 163.914062 162.910156 164.839844 162.863281 165.878906 C 162.824219 166.71875 163.164062 167.542969 163.625 168.234375 C 164.101562 168.960938 164.558594 169.289062 164.074219 170.140625 C 163.523438 171.117188 162.996094 171.675781 163.53125 172.882812 C 163.792969 173.472656 164.148438 173.882812 164.714844 174.199219 C 165.394531 174.585938 166.226562 174.820312 167 174.890625 C 167.296875 174.917969 167.875 175.015625 168.15625 174.898438 C 168.523438 174.746094 168.660156 174.296875 168.90625 173.953125 C 169.25 173.464844 169.738281 172.980469 170.328125 172.789062 C 170.550781 172.71875 170.851562 172.527344 171.085938 172.707031 C 171.539062 173.058594 170.828125 173.554688 170.535156 173.824219 C 169.882812 174.414062 169.414062 174.910156 169.171875 175.792969 C 168.945312 176.625 169.171875 177.421875 169.105469 178.269531 C 170.761719 178.222656 171.804688 178.839844 172.4375 180.453125 C 174.421875 179.746094 177.824219 178.898438 178.664062 181.78125 C 179.179688 183.546875 177.890625 182.726562 177.261719 181.917969 C 176.5 180.941406 175.757812 180.261719 174.347656 180.691406 C 173.746094 180.875 172.925781 181.808594 172.335938 181.78125 C 171.8125 181.757812 171.449219 181.019531 171.191406 180.636719 C 170.148438 179.109375 168.988281 178.753906 167.269531 179.589844 C 165.699219 180.351562 164.445312 182.242188 164.164062 183.953125 C 163.988281 185.027344 164.226562 186.5 164.585938 187.523438 C 164.679688 187.796875 165.59375 189.050781 165.425781 189.328125 C 165.109375 189.839844 164.175781 189.285156 163.972656 188.988281 C 163.777344 188.691406 163.769531 188.277344 163.6875 187.941406 C 163.59375 187.5625 163.480469 187.222656 163.417969 186.832031 C 163.351562 186.425781 163.511719 185.347656 163.277344 185.082031 C 162.957031 184.714844 161.117188 184.585938 160.574219 184.625 C 159.566406 184.691406 158.382812 185.105469 157.519531 185.613281 C 156.976562 185.933594 156.390625 186.78125 155.773438 186.34375 C 155.371094 186.050781 155.21875 185.175781 155.019531 184.753906 C 154.652344 183.964844 154.183594 183.324219 153.382812 182.9375 C 152.441406 182.484375 151.386719 182.648438 150.449219 182.199219 C 150.972656 181.464844 152.851562 181.933594 153.527344 182.136719 C 154.996094 182.585938 156.023438 183.707031 156.375 185.214844 C 157.828125 184.597656 159.484375 183.851562 161.101562 183.835938 C 161.863281 183.828125 162.527344 184.101562 163.257812 184.265625 C 163.328125 181.4375 165.585938 178.890625 168.375 178.398438 C 168.117188 177.492188 168.191406 176.679688 168.167969 175.722656 C 166.164062 176.058594 163.679688 175.519531 162.5625 173.65625 C 161.671875 172.175781 161.957031 170.242188 163.355469 169.222656 C 162.320312 168.199219 161.03125 165.835938 162.074219 164.441406 C 160.617188 164.382812 153.957031 164.15625 156.316406 161.148438 C 157.285156 161.855469 157.671875 162.617188 158.9375 163.03125 C 160.882812 163.671875 162.160156 163.277344 163.695312 161.910156 C 165.566406 160.242188 166.171875 157.570312 167.84375 155.738281 C 169.128906 154.332031 170.902344 153.746094 172.773438 153.746094 C 171.679688 153.632812 172.527344 152.371094 172.910156 151.8125 C 173.019531 151.652344 174.5 150.089844 174.433594 151.105469 C 174.304688 151.679688 174.449219 150.839844 174.433594 151.105469 Z M 174.433594 151.105469 " fill-opacity="1" fill-rule="nonzero"/><path fill="#ffffff" d="M 155.941406 151.167969 C 156.90625 151.472656 156.382812 152.875 156.203125 153.480469 C 156.007812 154.140625 155.875 154.929688 155.941406 155.625 C 156.03125 156.542969 156.910156 157.460938 156.910156 158.339844 C 156.910156 159.183594 155.628906 159.382812 154.976562 159.855469 C 151.988281 162.03125 149.910156 166.253906 149.867188 169.886719 C 149.816406 173.761719 152.457031 177.246094 155.933594 178.714844 C 156.238281 178.84375 157.453125 179.28125 156.984375 179.757812 C 156.59375 180.152344 155.300781 179.550781 154.945312 179.386719 C 153.886719 178.902344 152.933594 178.148438 152.144531 177.296875 C 151.878906 177.015625 151.417969 176.148438 151.0625 176.042969 C 150.742188 175.945312 149.628906 176.640625 149.351562 176.835938 C 148.839844 177.203125 147.847656 179.492188 147.160156 179.21875 C 146.546875 178.972656 147.453125 177.242188 147.722656 176.933594 C 148.367188 176.191406 149.53125 175.476562 150.515625 175.351562 C 149.105469 173.769531 148.855469 170.671875 149.078125 168.691406 C 149.109375 168.40625 149.320312 167.886719 149.226562 167.597656 C 149.128906 167.277344 148.308594 166.769531 148.039062 166.515625 C 147.839844 166.328125 147.65625 166.097656 147.433594 165.9375 C 147.089844 165.695312 146.605469 165.527344 146.203125 165.433594 C 145.765625 165.332031 144.316406 165.496094 144.273438 164.75 C 146.503906 164.070312 148.097656 164.921875 149.484375 166.625 C 149.730469 165.65625 150.125 164.605469 150.609375 163.734375 C 150.960938 163.105469 151.824219 162.515625 152.035156 161.839844 C 152.210938 161.277344 152.152344 161.519531 151.703125 160.976562 C 151.449219 160.671875 151.28125 160.320312 151.089844 159.976562 C 150.898438 159.628906 150.628906 159.285156 150.523438 158.898438 C 150.308594 158.121094 150.640625 158.144531 149.738281 158.070312 C 148.792969 157.992188 148.140625 157.992188 147.304688 158.515625 C 146.925781 158.753906 145.863281 159.675781 145.691406 158.527344 C 145.570312 157.746094 147.324219 157.484375 147.859375 157.34375 C 148.746094 157.109375 149.480469 157.066406 150.398438 157.089844 C 150.464844 156.207031 150.273438 154.957031 150.757812 154.15625 C 151.253906 153.339844 152.351562 152.296875 153.328125 152.292969 C 153.351562 152.859375 152.746094 153.128906 152.40625 153.5 C 151.980469 153.964844 151.785156 154.460938 151.632812 155.074219 C 151.042969 157.433594 151.667969 158.796875 152.847656 160.746094 C 153.472656 159.976562 154.226562 159.300781 154.800781 158.492188 C 155.101562 158.070312 155.292969 157.738281 155.292969 157.285156 C 155.289062 156.945312 155.101562 156.542969 155.074219 156.1875 C 154.960938 154.757812 155.121094 152.410156 155.941406 151.167969 C 156.191406 151.246094 155.566406 151.738281 155.941406 151.167969 Z M 155.941406 151.167969 " fill-opacity="1" fill-rule="nonzero"/><path fill="#ffffff" d="M 174.003906 158.910156 C 175.3125 159.070312 173.503906 159.894531 173.265625 160.074219 C 172.898438 160.351562 172.601562 160.824219 172.289062 161.179688 C 172.140625 161.351562 171.503906 161.914062 171.484375 162.136719 C 171.453125 162.476562 172.289062 163.382812 172.4375 163.710938 C 173.277344 165.558594 173.125 167.675781 172.132812 169.335938 C 173.292969 169.378906 174.289062 169.296875 175.371094 169.863281 C 175.796875 170.089844 178.289062 171.96875 176.980469 172.136719 C 176.511719 172.195312 175.78125 171.289062 175.425781 171.03125 C 174.875 170.640625 174.253906 170.238281 173.585938 170.085938 C 173.019531 169.957031 169.71875 170.539062 169.59375 170.207031 C 169.921875 169.496094 170.449219 169.847656 170.960938 169.539062 C 171.429688 169.257812 171.207031 169.402344 171.375 168.828125 C 171.453125 168.574219 171.507812 168.308594 171.585938 168.054688 C 171.949219 166.851562 172 165.9375 171.679688 164.703125 C 171.535156 164.140625 171.339844 163.5625 170.996094 163.089844 C 170.480469 162.382812 170.082031 162.675781 169.28125 162.605469 C 168.417969 162.53125 167.664062 162.082031 168.03125 160.972656 C 168.664062 161.011719 169.140625 161.273438 169.785156 161.152344 C 170.375 161.046875 170.9375 160.691406 171.429688 160.363281 C 172.109375 159.910156 173.078125 158.8125 174.003906 158.910156 C 174.410156 158.960938 173.78125 158.886719 174.003906 158.910156 Z M 174.003906 158.910156 " fill-opacity="1" fill-rule="nonzero"/><path fill="#ffffff" d="M 169.046875 190.09375 C 168.875 190.957031 168.425781 191.539062 168.59375 192.449219 C 168.667969 192.847656 168.816406 193.382812 169.101562 193.6875 C 169.542969 194.164062 169.730469 194.011719 170.316406 193.941406 C 171.09375 193.847656 171.851562 193.710938 172.523438 194.214844 C 173 194.574219 173.089844 194.9375 173.710938 195.15625 C 173.972656 195.246094 177.113281 195.839844 175.457031 196.296875 C 174.597656 196.53125 172.949219 195.742188 172.207031 195.402344 C 171.640625 195.144531 171.378906 194.933594 170.777344 195.03125 C 170.488281 195.078125 170.242188 195.242188 169.976562 195.347656 C 169.863281 195.394531 169.769531 195.492188 169.648438 195.53125 C 168.984375 195.75 168.234375 195.675781 167.550781 195.648438 C 165.714844 195.566406 164.152344 195.527344 162.609375 194.488281 C 161.679688 193.859375 160.546875 193.335938 160.976562 191.953125 C 161.59375 192.03125 161.957031 192.671875 162.359375 193.0625 C 162.914062 193.601562 163.46875 193.90625 164.195312 194.144531 C 165.355469 194.523438 166.964844 194.980469 168.191406 194.679688 C 167.382812 193.777344 167.328125 192.835938 167.40625 191.625 C 167.4375 191.136719 167.488281 190.765625 167.730469 190.335938 C 167.90625 190.027344 169.292969 189.15625 169.046875 190.09375 C 168.988281 190.382812 169.101562 189.882812 169.046875 190.09375 Z M 169.046875 190.09375 " fill-opacity="1" fill-rule="nonzero"/><path fill="#ffffff" d="M 155.722656 191.566406 C 155.710938 193.402344 154.167969 195.339844 154.679688 197.191406 C 155.3125 199.472656 158.34375 199.464844 160.042969 198.460938 C 160.527344 198.175781 160.40625 198 160.910156 198.246094 C 161.234375 198.402344 161.535156 198.84375 161.820312 199.074219 C 163.09375 200.078125 164.671875 200.53125 166.257812 200.75 C 168.21875 201.019531 169.859375 200.769531 171.703125 200.007812 C 172.4375 199.703125 173.0625 199.316406 173.667969 198.796875 C 173.984375 198.523438 174.703125 197.542969 175.171875 197.726562 C 176.800781 198.355469 172.347656 200.578125 172.257812 200.691406 C 172.058594 200.953125 172 202.226562 172.09375 202.652344 C 172.285156 203.492188 173.003906 203.71875 173.675781 204.136719 C 174.132812 204.421875 175.167969 204.851562 174.453125 205.328125 C 173.917969 205.679688 172.386719 205.28125 171.949219 204.898438 C 170.878906 203.964844 171.105469 202.5 171.253906 201.257812 C 167.992188 202.15625 163.949219 201.964844 160.980469 200.097656 C 160.828125 199.964844 160.671875 199.832031 160.511719 199.707031 C 160.351562 199.492188 160.191406 199.539062 160.03125 199.839844 C 159.902344 199.871094 159.691406 200.011719 159.566406 200.070312 C 158.933594 200.359375 158.296875 200.386719 157.617188 200.367188 C 156.308594 200.324219 155.007812 199.980469 154.167969 198.914062 C 153.324219 197.84375 153.636719 196.308594 153.949219 195.058594 C 154.273438 193.761719 154.3125 192.046875 155.460938 191.152344 C 155.550781 191.289062 155.636719 191.429688 155.722656 191.566406 C 155.71875 192.050781 155.671875 191.410156 155.722656 191.566406 Z M 155.722656 191.566406 " fill-opacity="1" fill-rule="nonzero"/><g clip-path="url(#dbae67c3b0)"><path fill="#ffffff" d="M 146.109375 233.789062 C 145.3125 235.585938 143.625 237.960938 141.515625 238.496094 C 142.25 239.203125 143.089844 239.671875 144.136719 239.539062 C 144.734375 239.449219 144.890625 240.515625 144.289062 240.605469 C 141.847656 240.960938 140.382812 238.960938 139.183594 237.097656 C 137.652344 234.699219 136.589844 232.390625 136.277344 229.546875 C 136.078125 227.75 136.054688 225.929688 135.65625 224.15625 C 135.34375 222.757812 134.589844 221.492188 134.257812 220.09375 C 133.878906 218.472656 134.433594 216.585938 136.253906 216.273438 C 136.566406 216.230469 136.722656 216.675781 136.386719 216.761719 C 133.347656 217.539062 135.722656 221.402344 136.253906 223.089844 C 136.832031 224.910156 136.898438 226.816406 137.121094 228.683594 C 137.410156 231.035156 138.007812 233.101562 139.230469 235.140625 C 139.71875 235.964844 140.296875 237.03125 141.027344 237.941406 C 142.046875 237.628906 142.890625 237.230469 143.714844 236.410156 C 144.558594 235.566406 145.132812 234.523438 145.867188 233.589844 C 145.976562 233.410156 146.199219 233.632812 146.109375 233.789062 Z M 162.957031 231.214844 C 166.246094 229.347656 169.042969 226.484375 170.640625 223.089844 C 170.773438 222.824219 171.128906 223.023438 171.082031 223.265625 C 170.394531 226.863281 166.222656 229.972656 163.160156 231.546875 C 162.9375 231.679688 162.738281 231.347656 162.957031 231.214844 Z M 215.101562 204.597656 C 212.703125 203.953125 210.285156 204.066406 207.84375 203.976562 C 206 203.910156 203.890625 203.800781 202.316406 202.734375 C 202.136719 202.601562 202.25 202.3125 202.472656 202.378906 C 204.78125 202.957031 206.910156 203.332031 209.285156 203.445312 C 211.304688 203.53125 213.28125 203.667969 215.214844 204.308594 C 215.367188 204.355469 215.300781 204.644531 215.101562 204.597656 Z M 198.03125 217.230469 C 196.765625 216.828125 195.257812 216.253906 194.347656 215.230469 C 194.234375 215.097656 194.367188 214.898438 194.523438 214.988281 C 195.078125 215.296875 195.589844 215.742188 196.144531 216.050781 C 196.765625 216.40625 197.410156 216.71875 198.097656 216.960938 C 198.253906 217.03125 198.1875 217.273438 198.03125 217.230469 Z M 212.792969 164.929688 C 213.460938 163.910156 214.789062 162.957031 216.078125 163.332031 C 216.277344 163.398438 216.300781 163.6875 216.078125 163.730469 C 215.546875 163.84375 215.011719 163.867188 214.480469 164.085938 C 213.949219 164.332031 213.414062 164.664062 213.039062 165.109375 C 212.925781 165.242188 212.703125 165.0625 212.792969 164.929688 Z M 205.933594 177.917969 C 201.582031 182.402344 197.808594 187.683594 191.640625 189.613281 C 191.484375 189.660156 191.417969 189.414062 191.574219 189.371094 C 194.769531 188.195312 197.410156 186.128906 199.71875 183.664062 C 201.648438 181.601562 203.359375 179.226562 205.644531 177.539062 C 205.867188 177.382812 206.113281 177.738281 205.933594 177.917969 Z M 186.753906 163.398438 C 185.890625 164.042969 185.578125 166.242188 185.289062 167.238281 C 184.933594 168.503906 184.582031 169.746094 184.269531 171.011719 C 184.226562 171.167969 183.980469 171.101562 184.023438 170.945312 C 184.445312 168.972656 184.890625 167.015625 185.425781 165.085938 C 185.644531 164.308594 185.710938 163.109375 186.667969 163.089844 C 186.84375 163.066406 186.867188 163.3125 186.753906 163.398438 Z M 195.101562 152.078125 C 196.542969 149.726562 197.855469 147.304688 198.410156 144.574219 C 198.917969 141.976562 199.140625 139.269531 199.828125 136.71875 C 199.898438 136.496094 200.273438 136.539062 200.25 136.785156 C 200.050781 139.492188 199.453125 142.355469 198.855469 145.019531 C 198.253906 147.726562 196.8125 149.945312 195.324219 152.234375 C 195.234375 152.367188 194.992188 152.234375 195.101562 152.078125 Z M 185.488281 174.855469 C 186.46875 169.105469 188.375 163.664062 190.484375 158.25 C 191.503906 155.585938 192.570312 152.921875 193.480469 150.234375 C 194.4375 147.4375 195.101562 144.597656 195.945312 141.757812 C 196.011719 141.535156 196.390625 141.578125 196.367188 141.824219 C 195.765625 147.4375 193.238281 152.945312 191.195312 158.160156 C 189.042969 163.621094 186.800781 169.148438 185.757812 174.941406 C 185.710938 175.097656 185.46875 175.03125 185.488281 174.855469 Z M 142.292969 181.136719 C 145.15625 181.710938 147.996094 182.421875 150.816406 183.109375 C 153.101562 183.6875 155.65625 184.152344 157.765625 185.242188 C 158.007812 185.375 157.832031 185.707031 157.585938 185.664062 C 155.144531 185.242188 152.726562 184.289062 150.304688 183.644531 C 147.597656 182.933594 144.867188 182.222656 142.203125 181.402344 C 142.046875 181.335938 142.117188 181.113281 142.292969 181.136719 Z M 138.296875 171.433594 C 138.03125 171.347656 138.140625 170.96875 138.410156 171.011719 C 140.738281 171.523438 142.847656 172.746094 144.777344 174.097656 C 144.867188 174.164062 144.777344 174.320312 144.691406 174.253906 C 142.714844 172.945312 140.539062 172.167969 138.296875 171.433594 Z M 134.035156 170.480469 C 139.074219 172.101562 144.113281 174.429688 148.640625 177.140625 C 148.773438 177.207031 148.6875 177.429688 148.53125 177.382812 C 148.375 177.339844 148.21875 177.296875 148.066406 177.25 C 147.996094 177.230469 147.996094 177.117188 148.085938 177.117188 C 147.265625 177.117188 145.824219 176.050781 145.046875 175.695312 C 143.890625 175.140625 142.738281 174.609375 141.558594 174.097656 C 139.03125 172.988281 136.453125 172.054688 133.902344 171.035156 C 133.570312 170.878906 133.703125 170.367188 134.035156 170.480469 Z M 153.992188 149.925781 C 154.148438 158.117188 155.679688 165.90625 159.429688 173.277344 C 159.519531 173.476562 159.253906 173.632812 159.140625 173.453125 C 155.257812 166.375 152.925781 158.070312 153.414062 149.945312 C 153.4375 149.546875 153.96875 149.546875 153.992188 149.925781 Z M 158.898438 138.160156 C 159.429688 139.824219 159.472656 141.644531 159.71875 143.355469 C 160.007812 145.375 160.453125 147.394531 161.007812 149.371094 C 161.050781 149.570312 160.761719 149.636719 160.71875 149.457031 C 160.074219 147.503906 159.539062 145.550781 159.183594 143.507812 C 158.875 141.621094 158.765625 139.734375 158.230469 137.894531 C 158.140625 137.5625 158.609375 137.425781 158.742188 137.714844 C 158.808594 137.628906 158.898438 137.582031 159.03125 137.605469 C 161.582031 138.050781 163.558594 139.847656 164.335938 142.3125 C 164.402344 142.488281 164.113281 142.554688 164.070312 142.378906 C 163.269531 140.136719 161.25 138.539062 158.898438 138.160156 Z M 173.503906 155.984375 C 172.328125 152.632812 171.4375 149.457031 169.285156 146.527344 C 169.195312 146.394531 169.417969 146.21875 169.507812 146.351562 C 171.636719 149.015625 173.679688 152.433594 173.859375 155.917969 C 173.882812 156.140625 173.570312 156.164062 173.503906 155.984375 Z M 172.214844 189.613281 C 172.527344 189.816406 172.816406 189.992188 173.125 190.171875 C 173.257812 190.238281 173.390625 190.28125 173.527344 190.304688 C 173.925781 191.125 174.28125 191.945312 174.636719 192.765625 C 173.8125 191.722656 172.992188 190.679688 172.214844 189.613281 Z M 176.964844 191.414062 C 177.078125 192.035156 177.164062 192.679688 177.230469 193.300781 C 177.03125 193.078125 176.855469 192.855469 176.65625 192.632812 C 176.144531 191.480469 175.632812 190.324219 175.191406 189.171875 C 174.324219 186.953125 173.480469 184.730469 172.683594 182.511719 C 173.015625 183.066406 173.4375 183.554688 173.945312 183.886719 C 174.214844 184.066406 174.480469 184.109375 174.703125 184.066406 C 174.789062 184.222656 174.878906 184.355469 174.992188 184.488281 C 174.992188 184.507812 175.011719 184.507812 175.035156 184.53125 C 174.96875 184.640625 174.945312 184.796875 174.992188 184.976562 C 175.5 187.171875 176.589844 189.148438 176.964844 191.414062 Z M 184.648438 191.746094 C 184.023438 192.433594 183.382812 193.054688 182.691406 193.675781 C 183.203125 192.921875 183.667969 192.144531 184.09375 191.347656 C 184.292969 191.480469 184.46875 191.613281 184.648438 191.746094 Z M 189.574219 187.238281 L 189.574219 187.21875 L 189.597656 187.238281 C 189.597656 187.21875 189.597656 187.21875 189.574219 187.238281 Z M 174.703125 189.769531 C 174.703125 189.769531 174.722656 189.769531 174.703125 189.769531 C 174.703125 189.769531 174.722656 189.792969 174.722656 189.816406 C 174.722656 189.792969 174.722656 189.792969 174.703125 189.769531 Z M 178.476562 188.703125 C 178.476562 188.527344 178.476562 188.371094 178.453125 188.195312 C 178.542969 188.550781 178.609375 188.882812 178.699219 189.238281 C 178.632812 189.039062 178.542969 188.859375 178.476562 188.703125 Z M 183.136719 185.707031 C 183.226562 185.707031 183.316406 185.6875 183.402344 185.664062 C 183.269531 185.953125 183.113281 186.261719 182.980469 186.550781 C 183.003906 186.261719 183.070312 185.996094 183.136719 185.707031 Z M 172.105469 186.550781 C 172.058594 186.507812 172.082031 186.507812 172.105469 186.550781 Z M 171.972656 143.019531 C 171.992188 140.625 171.636719 138.226562 171.261719 135.875 C 171.238281 135.675781 170.882812 135.71875 170.90625 135.917969 C 171.152344 137.9375 171.21875 139.957031 171.304688 142 C 171.195312 141.824219 171.082031 141.667969 170.972656 141.511719 C 169.640625 139.667969 167.933594 138.050781 165.976562 136.984375 C 166 136.960938 166.023438 136.9375 166.042969 136.917969 C 166.066406 136.871094 166.113281 136.828125 166.132812 136.785156 C 166.289062 136.5625 166 136.339844 165.777344 136.429688 C 166.488281 136.050781 166.867188 135.140625 167.445312 134.453125 C 167.976562 133.832031 168.597656 133.277344 169.21875 132.742188 C 169.886719 132.167969 171.152344 130.789062 172.082031 130.746094 C 172.949219 130.703125 173.214844 131.765625 173.679688 132.390625 C 175.769531 135.230469 179.097656 137.539062 178.742188 141.46875 C 178.71875 141.667969 178.832031 141.824219 178.988281 141.910156 C 177.410156 145.195312 176.832031 148.925781 176.367188 152.566406 C 176.34375 152.476562 176.324219 152.386719 176.277344 152.300781 C 176.789062 150.546875 176.367188 148.394531 176.277344 146.664062 C 176.121094 143.863281 176.035156 141.089844 175.324219 138.359375 C 175.257812 138.117188 174.902344 138.226562 174.945312 138.46875 C 175.480469 140.957031 175.523438 143.488281 175.632812 146.019531 C 175.699219 147.550781 176.011719 149.390625 175.855469 151.058594 C 175.457031 150.058594 175.011719 149.082031 174.589844 148.125 C 173.769531 146.394531 172.949219 144.664062 171.972656 143.019531 Z M 232.0625 169.636719 C 232.039062 169.636719 232.015625 169.660156 231.996094 169.660156 C 232.015625 169.460938 232.015625 169.238281 232.039062 169.035156 C 232.0625 168.816406 231.683594 168.75 231.640625 168.992188 C 231.375 170.28125 230.796875 171.433594 230.417969 172.699219 C 230.261719 173.1875 231.019531 173.523438 231.238281 173.054688 C 231.683594 172.167969 231.863281 171.125 231.949219 170.125 C 231.996094 170.167969 232.0625 170.191406 232.128906 170.214844 C 233.75 170.390625 231.972656 174.03125 231.640625 174.476562 C 231.59375 174.542969 231.550781 174.585938 231.507812 174.652344 C 231.308594 174.566406 231.0625 174.808594 231.152344 175.03125 C 230.597656 175.5625 229.929688 175.964844 229.285156 176.386719 C 228.289062 177.050781 227.222656 177.738281 227.066406 179.003906 C 227.023438 179.316406 227.464844 179.425781 227.644531 179.246094 C 228.730469 178.203125 229.753906 177.40625 230.972656 176.539062 C 231.195312 176.386719 231.394531 176.230469 231.574219 176.050781 C 231.839844 176.960938 231.816406 177.9375 231.394531 178.804688 C 230.929688 179.78125 229.976562 180.3125 229.417969 181.203125 C 228.730469 182.265625 228.507812 183.199219 227.355469 183.953125 C 226.402344 184.574219 225.289062 184.953125 224.246094 185.375 C 222.207031 186.195312 220.164062 186.972656 218.121094 187.707031 C 218.121094 187.707031 218.121094 187.707031 218.144531 187.683594 C 219.363281 186.972656 220.496094 186.0625 221.671875 185.265625 C 223.003906 184.355469 224.402344 183.511719 225.691406 182.535156 C 225.847656 182.421875 225.714844 182.199219 225.535156 182.289062 C 224.179688 183 222.738281 183.796875 221.363281 184.664062 C 222.648438 183.378906 223.9375 182.113281 225.402344 181.023438 C 225.667969 180.824219 225.445312 180.46875 225.15625 180.601562 C 222.605469 181.757812 220.761719 183.910156 218.699219 185.730469 C 217.476562 186.816406 216.167969 187.75 214.703125 188.484375 C 213.371094 189.171875 211.929688 189.527344 210.617188 190.238281 C 210.617188 190.238281 210.617188 190.238281 210.597656 190.238281 C 209.152344 190.703125 207.6875 191.144531 206.246094 191.589844 C 208.554688 189.257812 210.0625 185.707031 212.882812 184.085938 C 213.039062 184 212.902344 183.777344 212.75 183.867188 C 210.796875 184.929688 209.441406 186.597656 208.085938 188.328125 C 206.957031 189.769531 205.867188 191.035156 204.515625 192.125 C 204.179688 192.210938 203.847656 192.324219 203.515625 192.410156 C 204.203125 191.769531 204.824219 191.015625 205.355469 190.257812 C 207.796875 186.816406 209.398438 183.109375 212.925781 180.558594 C 213.082031 180.445312 212.925781 180.203125 212.773438 180.3125 C 210.039062 182.15625 208.242188 184.464844 206.554688 187.261719 C 205.222656 189.460938 203.824219 191.546875 201.828125 192.878906 C 200.339844 193.300781 198.832031 193.699219 197.320312 194.097656 C 195.144531 194.652344 192.949219 195.207031 190.75 195.695312 C 189.550781 195.964844 188.152344 196.273438 186.867188 196.207031 C 187.222656 196.007812 187.578125 195.808594 187.929688 195.609375 C 190.328125 194.164062 192.703125 192.65625 195.078125 191.214844 C 195.257812 191.101562 195.101562 190.835938 194.925781 190.925781 C 192.882812 192.101562 190.816406 193.253906 188.773438 194.453125 C 187.800781 195.03125 186.820312 195.609375 185.800781 196.050781 C 185.46875 195.964844 185.136719 195.832031 184.847656 195.652344 C 185.691406 194.585938 186.398438 193.457031 187.042969 192.234375 C 187.066406 192.191406 187.089844 192.125 187.109375 192.078125 C 187.242188 191.945312 187.355469 191.8125 187.441406 191.632812 C 187.800781 191.546875 188.109375 191.257812 187.929688 190.835938 C 187.929688 190.8125 187.910156 190.792969 187.910156 190.769531 C 188.640625 189.902344 189.417969 189.082031 190.285156 188.351562 C 190.574219 188.105469 190.53125 187.75 190.351562 187.507812 C 190.53125 187.507812 190.707031 187.484375 190.882812 187.394531 C 191.4375 187.128906 192.0625 186.464844 192.550781 185.664062 C 192.859375 185.375 193.148438 185.066406 193.4375 184.753906 C 194.835938 183.265625 196.191406 181.757812 197.566406 180.269531 C 197.722656 180.089844 197.476562 179.847656 197.300781 180.003906 C 195.945312 181.378906 194.613281 182.910156 193.148438 184.265625 C 193.570312 182.910156 193.347656 181.601562 191.726562 181.402344 C 190.394531 181.222656 189.351562 182.355469 188.707031 183.378906 C 188 184.488281 187.621094 185.820312 187.84375 187.128906 C 187.929688 187.59375 188.285156 187.796875 188.664062 187.773438 C 187.953125 188.285156 187.3125 188.839844 186.710938 189.4375 C 186.289062 189.191406 185.824219 189.039062 185.335938 188.949219 C 186.753906 186.109375 187.910156 183.132812 188.996094 180.160156 C 189.085938 179.9375 188.730469 179.847656 188.664062 180.070312 C 187.488281 183.042969 186.265625 186.019531 184.757812 188.859375 C 184.601562 188.839844 184.46875 188.816406 184.3125 188.816406 C 183.292969 188.726562 182.804688 190.148438 183.492188 190.792969 C 183.515625 190.8125 183.558594 190.859375 183.582031 190.878906 C 182.824219 192.078125 182.003906 193.234375 181.183594 194.363281 C 181.25 193.433594 181.429688 192.523438 181.671875 191.632812 C 181.9375 190.636719 182.269531 189.683594 182.515625 188.683594 C 183.226562 187.441406 183.824219 186.128906 184.402344 184.796875 C 185.777344 181.625 187.066406 178.425781 188.398438 175.230469 C 188.464844 175.054688 188.152344 174.917969 188.066406 175.097656 C 186.800781 177.9375 185.535156 180.757812 184.269531 183.597656 C 184.378906 181.558594 184.601562 178.050781 182.316406 177.984375 C 181.09375 177.9375 180.828125 179.046875 180.828125 180.003906 C 180.828125 181.269531 180.671875 183.179688 181.40625 184.265625 C 181.515625 184.421875 181.671875 184.507812 181.828125 184.554688 C 181.828125 184.820312 181.960938 185.085938 182.136719 185.285156 C 181.582031 186.328125 180.851562 187.285156 180.339844 188.351562 C 180.273438 188.503906 180.207031 188.660156 180.140625 188.792969 C 180.140625 188.304688 180.117188 187.796875 180.097656 187.285156 C 179.960938 183.511719 179.785156 179.738281 179.785156 175.941406 C 179.808594 168.261719 180.496094 160.582031 182.714844 153.230469 C 182.78125 153.011719 182.425781 152.898438 182.359375 153.144531 C 180.230469 159.914062 179.363281 166.972656 179.1875 174.054688 C 179.097656 177.648438 179.164062 181.246094 179.320312 184.84375 C 179.363281 186.0625 179.429688 187.304688 179.453125 188.527344 C 178.542969 184.710938 177.300781 180.890625 176.964844 177.007812 C 176.386719 170.035156 177.453125 162.957031 178.917969 156.140625 C 178.941406 156.007812 178.742188 155.941406 178.71875 156.074219 C 177.476562 161.535156 176.386719 167.015625 176.277344 172.609375 C 175.921875 166.441406 176.476562 160.269531 177.253906 154.164062 C 177.964844 148.59375 178.496094 141.957031 183.003906 137.984375 C 184.046875 137.050781 185.246094 136.339844 186.601562 135.941406 C 187.578125 135.652344 188.597656 135.539062 189.507812 135.050781 C 187.6875 137.117188 186.398438 139.871094 185.601562 142.355469 C 185.535156 142.578125 185.867188 142.667969 185.957031 142.445312 C 186.601562 140.757812 187.375 139.136719 188.375 137.648438 C 189.285156 136.273438 190.441406 135.140625 191.417969 133.832031 C 191.484375 133.742188 191.4375 133.609375 191.351562 133.542969 C 191.550781 133.34375 191.75 133.164062 191.972656 132.988281 C 193.636719 131.613281 195.589844 131.988281 196.988281 133.5 L 197.011719 133.519531 C 197.078125 133.851562 197.542969 133.851562 197.585938 133.5 C 197.566406 132.832031 197.832031 132.390625 198.386719 132.121094 C 198.742188 131.632812 199.1875 131.566406 199.695312 131.945312 C 200.5625 132.1875 200.875 132.5 201.382812 133.234375 C 201.960938 134.054688 202.382812 134.984375 202.648438 135.917969 C 203.203125 137.828125 203.226562 139.847656 202.828125 141.777344 C 202.425781 143.777344 201.628906 145.664062 200.671875 147.460938 C 199.785156 149.105469 198.609375 150.65625 198.03125 152.457031 C 197.875 152.964844 198.632812 153.277344 198.898438 152.8125 C 198.941406 152.742188 198.964844 152.675781 199.007812 152.609375 C 199.054688 152.675781 199.164062 152.722656 199.253906 152.65625 C 200.761719 151.632812 202.050781 150.101562 203.671875 149.214844 C 202.914062 151.324219 201.582031 153.03125 200.40625 154.917969 C 199.164062 156.9375 198.121094 159.027344 197.121094 161.179688 C 197.03125 161.355469 197.300781 161.535156 197.410156 161.335938 C 198.632812 158.980469 199.984375 156.671875 201.429688 154.453125 C 202.492188 152.832031 204.160156 151.101562 204.136719 149.039062 C 204.136719 149.015625 204.136719 148.992188 204.113281 148.96875 C 204.402344 148.835938 204.714844 148.726562 205.023438 148.636719 C 208.066406 147.839844 210.152344 149.746094 210.816406 152.542969 C 210.882812 152.855469 211.394531 152.878906 211.460938 152.542969 C 211.929688 150.011719 209.574219 147.90625 207.222656 147.636719 C 204.160156 147.304688 201.40625 149.769531 199.410156 151.921875 C 202.183594 147.195312 205.355469 141.867188 203.804688 136.183594 C 203.316406 134.410156 202.074219 131.699219 200.140625 131.035156 C 198.785156 130.570312 197.253906 131.566406 197.054688 132.921875 C 196.253906 131.964844 195.058594 131.457031 193.769531 131.523438 C 191.640625 131.632812 190.660156 133.652344 188.820312 134.410156 C 186.777344 135.253906 184.847656 135.363281 183.003906 136.761719 C 181.738281 137.738281 180.671875 138.957031 179.828125 140.3125 C 179.742188 138.625 178.964844 137.117188 177.921875 135.738281 C 177.230469 134.851562 176.433594 134.03125 175.699219 133.1875 C 174.855469 132.234375 174.300781 131.101562 173.503906 130.144531 C 172.328125 128.769531 170.417969 130.523438 169.441406 131.367188 C 167.796875 132.789062 165.933594 134.363281 165.3125 136.539062 C 165.3125 136.5625 165.3125 136.582031 165.3125 136.582031 C 163.667969 135.828125 161.871094 135.453125 159.941406 135.675781 C 159.585938 135.71875 159.5625 136.273438 159.941406 136.25 C 169.550781 135.808594 173.769531 148.148438 175.855469 155.519531 C 175.878906 155.585938 175.921875 155.652344 175.96875 155.695312 C 175.257812 161.203125 174.8125 166.75 175.078125 172.300781 C 175.300781 176.960938 176.476562 181.535156 177.054688 186.128906 C 176.742188 185.621094 176.457031 185.109375 176.257812 184.554688 C 176.1875 184.332031 176.035156 184.199219 175.878906 184.152344 C 176.742188 182.289062 175.789062 178.136719 173.570312 177.761719 C 172.195312 177.515625 171.683594 178.671875 171.773438 179.78125 C 169.617188 173.609375 167.664062 167.351562 165.976562 161.046875 C 165.910156 160.824219 165.578125 160.914062 165.644531 161.136719 C 167.289062 167.683594 169.128906 174.164062 171.351562 180.558594 C 172.148438 182.867188 172.992188 185.152344 173.859375 187.417969 C 173.59375 187.039062 173.28125 186.707031 172.96875 186.375 C 171.351562 183.132812 169.863281 179.847656 168.507812 176.496094 C 165.800781 169.746094 163.714844 162.777344 161.984375 155.71875 C 161.9375 155.585938 161.738281 155.628906 161.761719 155.785156 C 163.136719 163.242188 165.355469 170.503906 168.199219 177.515625 C 169.285156 180.179688 170.460938 182.820312 171.726562 185.398438 C 171.683594 185.375 171.636719 185.332031 171.617188 185.308594 C 171.152344 184.996094 170.351562 185.175781 170.105469 185.707031 C 170.019531 185.886719 169.972656 186.0625 169.929688 186.242188 C 167.175781 182.046875 164.867188 177.515625 163.558594 172.65625 C 163.492188 172.433594 163.179688 172.523438 163.226562 172.746094 C 164.445312 177.960938 166.777344 182.710938 169.75 187.152344 C 171.152344 189.238281 172.660156 191.257812 174.234375 193.210938 C 174.546875 193.589844 174.835938 193.988281 175.144531 194.386719 C 174.035156 193.921875 172.859375 193.519531 171.773438 193.054688 C 171.527344 192.945312 171.304688 193.300781 171.550781 193.433594 C 173.015625 194.121094 174.523438 195.007812 176.054688 195.609375 C 176.101562 195.675781 176.144531 195.742188 176.210938 195.785156 C 176.367188 196.050781 176.542969 196.320312 176.722656 196.585938 C 176.675781 196.585938 176.609375 196.585938 176.542969 196.609375 C 176.277344 196.675781 176.011719 196.761719 175.746094 196.851562 C 173.945312 196.230469 172.039062 195.832031 170.238281 195.1875 C 167.664062 194.296875 165.132812 193.253906 162.714844 192.011719 C 162.539062 191.921875 162.359375 192.191406 162.558594 192.300781 C 166.113281 194.320312 170.152344 196.253906 174.234375 197.25 C 172.816406 197.472656 171.503906 197.605469 169.996094 197.363281 C 168.464844 197.09375 166.976562 196.609375 165.511719 196.121094 C 165.246094 196.03125 165.15625 196.429688 165.402344 196.519531 C 167.109375 197.183594 169.242188 198.050781 171.304688 198.226562 C 171.171875 198.273438 171.039062 198.316406 170.90625 198.339844 C 168.597656 198.9375 166.421875 198.9375 164.089844 198.472656 C 160.027344 197.671875 156.410156 196.785156 152.214844 197.140625 C 144.644531 197.804688 134.855469 200.3125 130.085938 192.433594 C 129.949219 192.210938 129.53125 192.34375 129.640625 192.632812 C 132.613281 200.847656 143.292969 199.402344 150.019531 198.582031 C 152.328125 198.292969 154.632812 198.070312 156.964844 198.273438 C 158.917969 198.425781 160.804688 198.960938 162.714844 199.382812 C 152.902344 200.734375 144.625 207.328125 137.296875 213.632812 C 136.742188 214.097656 137.542969 214.875 138.097656 214.433594 C 145.890625 207.90625 153.746094 201.15625 164.15625 199.691406 C 164.226562 199.714844 164.3125 199.714844 164.378906 199.738281 C 165.421875 199.914062 166.421875 199.980469 167.421875 199.957031 C 166.023438 200.515625 164.667969 201.15625 163.359375 201.800781 C 160.695312 203.113281 157.941406 204.554688 155.632812 206.464844 C 154.632812 207.285156 153.8125 208.21875 153.101562 209.28125 C 152.191406 210.679688 151.148438 211.5 149.882812 212.546875 C 147.863281 214.1875 146.15625 216.496094 145.402344 219.003906 C 145.355469 219.160156 145.578125 219.25 145.667969 219.117188 C 146.976562 216.273438 148.574219 214.210938 151.082031 212.367188 C 153.082031 210.902344 153.992188 208.660156 155.878906 207.0625 C 160.117188 203.464844 165.421875 201.578125 170.527344 199.558594 C 172.613281 199.136719 174.65625 198.425781 176.722656 197.695312 C 176.8125 197.695312 176.898438 197.671875 176.945312 197.605469 C 177.101562 197.515625 177.210938 197.363281 177.230469 197.207031 C 177.367188 197.363281 177.476562 197.515625 177.632812 197.671875 C 174.523438 198.695312 171.460938 199.9375 168.664062 201.601562 C 165.246094 203.644531 162.738281 206.394531 160.738281 209.816406 C 159.5625 211.835938 158.476562 213.855469 157.011719 215.699219 C 155.546875 217.539062 153.859375 219.207031 152.347656 221.003906 C 149.929688 223.886719 147.84375 227.285156 147.886719 231.167969 C 147.886719 231.347656 148.152344 231.347656 148.152344 231.167969 C 148.375 226.597656 151.195312 223.132812 154.148438 219.894531 C 156.808594 216.984375 159.03125 214.078125 161.007812 210.660156 C 163.046875 207.128906 165.46875 204.289062 168.996094 202.179688 C 171.683594 200.558594 174.613281 199.46875 177.542969 198.40625 C 177.277344 198.648438 177.011719 198.894531 176.742188 199.117188 C 175.011719 200.648438 173.371094 202.222656 171.773438 203.886719 C 168.621094 207.171875 165.867188 210.703125 163.335938 214.476562 C 163.226562 214.632812 163.46875 214.765625 163.582031 214.609375 C 166.042969 211.257812 168.753906 208.015625 171.617188 205 C 172.925781 203.621094 174.28125 202.289062 175.679688 201.003906 C 176.523438 200.226562 177.386719 199.339844 178.34375 198.605469 C 177.65625 201.089844 176.675781 203.464844 175.34375 205.6875 C 174.523438 207.085938 173.570312 208.394531 172.503906 209.613281 C 171.726562 210.523438 170.683594 211.324219 170.195312 212.433594 C 169.597656 213.832031 169.53125 215.296875 168.730469 216.675781 C 167.933594 218.050781 166.820312 219.25 165.644531 220.335938 C 163.335938 222.46875 160.71875 224.222656 158.609375 226.597656 C 158.476562 226.753906 158.695312 226.996094 158.851562 226.839844 C 161.027344 224.421875 163.824219 222.710938 166.222656 220.535156 C 168.398438 218.5625 169.796875 216.363281 170.507812 213.5 C 170.949219 211.746094 172.527344 210.59375 173.636719 209.238281 C 174.523438 208.148438 175.300781 206.996094 176.011719 205.773438 C 177.277344 203.601562 178.253906 201.269531 178.917969 198.847656 C 178.941406 198.871094 178.988281 198.914062 179.007812 198.9375 C 179.074219 199.027344 179.140625 199.09375 179.230469 199.136719 C 179.429688 199.316406 179.605469 199.492188 179.808594 199.671875 C 179.828125 199.691406 179.851562 199.691406 179.875 199.691406 C 179.652344 201.578125 178.765625 203.53125 178.1875 205.242188 C 177.433594 207.460938 176.632812 209.660156 175.746094 211.835938 C 175.679688 212.011719 175.988281 212.144531 176.054688 211.96875 C 177.101562 209.59375 178.097656 207.21875 178.964844 204.777344 C 179.585938 203 180.539062 201.003906 180.519531 199.070312 C 180.828125 198.960938 181.140625 198.804688 181.449219 198.628906 C 181.117188 202.777344 180.917969 206.886719 179.71875 210.925781 C 178.429688 215.210938 175.722656 218.9375 175.078125 223.421875 C 175.011719 223.84375 175.632812 224.023438 175.722656 223.597656 C 176.609375 219.003906 179.542969 215.121094 180.875 210.636719 C 181.5625 208.328125 182.003906 205.90625 182.292969 203.445312 C 182.40625 204.089844 182.515625 204.730469 182.648438 205.332031 C 183.425781 208.882812 184.335938 212.414062 185.289062 215.917969 C 185.355469 216.1875 185.757812 216.074219 185.710938 215.808594 C 185.136719 212.480469 184.492188 209.171875 183.78125 205.839844 C 183.449219 204.308594 183.179688 202.777344 183.136719 201.203125 C 183.09375 199.847656 183.292969 198.539062 183.402344 197.207031 C 183.449219 197.207031 183.515625 197.183594 183.558594 197.183594 C 183.601562 197.5625 183.648438 197.960938 183.714844 198.339844 C 183.558594 198.984375 183.691406 199.558594 183.957031 200.113281 C 184.292969 202.3125 184.710938 204.507812 185.511719 206.507812 C 186.578125 209.125 188.421875 211.234375 190.730469 212.832031 C 190.929688 212.96875 191.105469 212.65625 190.929688 212.5 C 187.089844 209.75 185.734375 205.707031 184.933594 201.425781 C 185.378906 201.867188 185.867188 202.269531 186.332031 202.621094 C 187.578125 203.554688 188.863281 204.421875 190.21875 205.199219 C 191.574219 205.976562 193.460938 206.550781 194.214844 208.015625 C 194.304688 208.195312 194.546875 208.039062 194.457031 207.863281 C 193.59375 206.109375 191.484375 205.441406 189.929688 204.445312 C 188.066406 203.246094 185.601562 201.84375 184.667969 199.757812 C 184.558594 199.003906 184.445312 198.226562 184.335938 197.472656 C 185.644531 198.871094 187.023438 200.203125 188.621094 201.246094 C 190.972656 202.777344 193.726562 203.445312 196.34375 204.398438 C 202.09375 206.507812 207.597656 209.480469 212.503906 213.144531 C 212.636719 213.234375 212.75 213.035156 212.636719 212.921875 C 208.152344 209.480469 203.359375 206.617188 198.140625 204.464844 C 195.433594 203.355469 192.480469 202.644531 189.929688 201.246094 C 188.109375 200.246094 186.578125 198.828125 185.136719 197.339844 C 191.460938 199.425781 198.386719 200.070312 204.957031 200.46875 C 208.53125 200.691406 212.4375 201.246094 215.988281 200.800781 C 219.609375 200.335938 222.316406 197.382812 226.132812 198.449219 C 226.644531 198.605469 226.910156 197.894531 226.488281 197.605469 C 223.804688 195.851562 220.71875 197.917969 218.164062 198.9375 C 214.660156 200.335938 210.21875 199.515625 206.535156 199.316406 C 200.5625 199.003906 194.746094 198.359375 188.953125 197.25 C 191.195312 196.984375 193.503906 196.207031 195.234375 195.765625 C 201.160156 194.277344 207.042969 192.546875 212.816406 190.546875 C 215.65625 189.570312 218.476562 188.527344 221.273438 187.441406 C 223.558594 186.550781 226.332031 185.820312 228.332031 184.332031 C 229.0625 183.777344 229.488281 183.15625 229.90625 182.335938 C 230.507812 181.136719 231.574219 180.359375 232.195312 179.203125 C 232.882812 177.894531 232.816406 176.472656 232.152344 175.273438 C 232.527344 174.855469 232.839844 174.386719 233.058594 173.855469 C 233.503906 172.988281 234.390625 169.105469 232.0625 169.636719 Z M 217.300781 213.945312 C 218.03125 213.054688 218.296875 212.300781 218.363281 211.167969 C 218.410156 210.480469 218.433594 209.835938 219.03125 209.414062 C 219.253906 209.261719 219.542969 209.480469 219.542969 209.703125 C 219.5625 210.191406 219.386719 210.660156 219.320312 211.148438 C 219.253906 211.589844 219.207031 212.058594 219.074219 212.5 C 218.808594 213.257812 218.320312 213.945312 217.632812 214.367188 C 217.34375 214.519531 217.101562 214.164062 217.300781 213.945312 Z M 191.707031 220.25 C 194.167969 221.710938 196.476562 220.9375 199.121094 221.136719 C 200.386719 221.246094 201.472656 221.800781 202.691406 222.136719 C 204.023438 222.488281 205.335938 222.402344 206.621094 222.046875 C 204.78125 220.824219 203.136719 219.449219 201.050781 218.582031 C 200.917969 218.515625 201.007812 218.292969 201.140625 218.363281 C 203.25 219.207031 205.625 220.179688 207.199219 221.890625 C 209.199219 221.246094 211.015625 220.335938 212.726562 219.207031 C 212.703125 219.183594 212.683594 219.136719 212.660156 219.09375 C 211.640625 215.785156 208.398438 214.433594 205.625 212.789062 C 205.445312 212.679688 205.601562 212.433594 205.777344 212.523438 C 208.554688 213.898438 212.503906 215.429688 213.148438 218.894531 C 213.570312 218.605469 213.96875 218.292969 214.390625 217.960938 C 214.703125 217.71875 215.058594 218.007812 214.925781 218.363281 C 213.882812 220.757812 210.550781 221.824219 208.308594 222.691406 C 206.84375 223.246094 205.289062 223.644531 203.691406 223.488281 C 202.050781 223.332031 200.628906 222.421875 199.007812 222.246094 C 197.386719 222.066406 195.765625 222.445312 194.148438 222.15625 C 192.949219 221.933594 191.839844 221.425781 190.863281 220.667969 C 188.910156 219.183594 187.332031 216.960938 186.15625 214.855469 C 186 214.585938 186.398438 214.34375 186.578125 214.609375 C 188.066406 216.71875 189.417969 218.894531 191.707031 220.25 Z M 225.203125 207.773438 C 225.425781 209.460938 223.980469 210.945312 222.984375 212.101562 C 222.605469 212.523438 222.140625 212.945312 221.828125 213.410156 C 221.050781 214.5 221.363281 214.898438 221.183594 215.941406 C 221.074219 216.605469 220.808594 217.230469 220.386719 217.785156 C 219.898438 218.429688 219.207031 218.984375 218.433594 219.183594 C 217.542969 221.757812 215.035156 223.199219 212.503906 223.886719 C 208.84375 224.867188 204.890625 225.109375 201.140625 225.597656 C 197.988281 226.019531 194.523438 226.550781 191.527344 225.152344 C 188.910156 223.933594 186.867188 221.09375 186.042969 218.382812 C 185.890625 217.851562 186.601562 217.652344 186.867188 218.027344 C 188.753906 220.558594 189.664062 223.398438 192.972656 224.441406 C 195.679688 225.285156 198.652344 224.777344 201.382812 224.421875 C 204.515625 224.023438 207.710938 223.753906 210.816406 223.222656 C 213.613281 222.734375 216.234375 221.691406 217.699219 219.25 C 217.542969 219.25 217.410156 219.226562 217.253906 219.207031 C 217.054688 219.160156 216.988281 218.828125 217.1875 218.738281 C 217.945312 218.382812 218.765625 218.140625 219.363281 217.539062 C 220.40625 216.496094 220.097656 215.496094 220.363281 214.230469 C 220.609375 213.101562 221.605469 212.300781 222.339844 211.480469 C 222.738281 211.035156 223.136719 210.570312 223.472656 210.105469 C 224.003906 209.347656 224.445312 208.128906 224.09375 207.195312 C 223.847656 206.574219 223.003906 206.109375 222.605469 205.574219 C 221.894531 204.578125 221.761719 203.421875 222.226562 202.289062 C 222.292969 202.113281 222.648438 202.113281 222.605469 202.335938 C 222.382812 204.175781 223.160156 204.976562 224.3125 206.175781 C 224.757812 206.640625 225.113281 207.128906 225.203125 207.773438 Z M 227.84375 200.402344 C 228.042969 201.136719 227.53125 201.601562 226.976562 201.980469 C 225.914062 202.6875 224.734375 203.53125 223.558594 204.042969 C 223.269531 204.175781 222.894531 203.800781 223.183594 203.554688 C 223.804688 203.042969 224.515625 202.667969 225.203125 202.246094 C 225.601562 202 226.933594 201.445312 227.15625 200.847656 C 226.421875 200.800781 225.800781 200.382812 225.492188 199.691406 C 225.402344 199.515625 225.558594 199.359375 225.714844 199.359375 C 224.535156 198.761719 222.984375 199.828125 222.003906 200.46875 C 220.894531 201.203125 220.03125 202.132812 219.121094 203.089844 C 218.988281 203.222656 218.742188 203.042969 218.851562 202.890625 C 219.785156 201.335938 221.25 200.09375 222.847656 199.25 C 223.914062 198.695312 225.246094 198.070312 226.269531 199.003906 C 226.511719 199.226562 226.179688 199.671875 225.914062 199.46875 C 225.914062 199.46875 225.890625 199.46875 225.890625 199.449219 C 226.246094 199.957031 226.824219 200.226562 227.445312 200.136719 C 227.601562 200.113281 227.800781 200.203125 227.84375 200.402344 Z M 175.832031 224.886719 C 176.367188 227.53125 175.5 230.460938 174.082031 232.679688 C 173.679688 233.324219 172.96875 234.632812 172.125 234.722656 C 171.304688 234.808594 170.996094 233.433594 170.417969 233.367188 C 170.417969 233.457031 170.394531 233.523438 170.351562 233.609375 C 168.375 236.785156 164.179688 237.917969 160.785156 238.828125 C 158.519531 239.449219 156.167969 240.070312 153.792969 240.070312 C 151.371094 240.09375 149.039062 239.292969 146.621094 239.226562 C 146.355469 239.226562 146.355469 238.828125 146.621094 238.804688 C 148.730469 238.605469 150.75 238.984375 152.859375 239.027344 C 155.144531 239.070312 157.363281 238.582031 159.5625 237.984375 C 163.382812 236.964844 166.753906 235.898438 169.550781 232.988281 C 169.75 232.789062 169.996094 232.8125 170.171875 232.921875 C 170.574219 232.746094 170.640625 232.746094 171.105469 232.945312 C 171.59375 233.144531 171.351562 233.367188 171.882812 233.476562 C 172.660156 233.632812 172.902344 232.8125 173.304688 232.191406 C 174.703125 229.90625 174.925781 227.550781 175.058594 224.953125 C 175.078125 224.578125 175.746094 224.441406 175.832031 224.886719 Z M 151.636719 171.902344 C 151.882812 171.902344 152.128906 171.902344 152.394531 171.902344 C 152.636719 171.921875 152.902344 171.878906 153.125 171.902344 C 153.148438 171.902344 153.191406 171.902344 153.214844 171.902344 C 154.324219 173.609375 155.546875 175.273438 156.921875 176.804688 C 157.03125 176.917969 157.144531 176.984375 157.277344 177.007812 C 157.585938 177.582031 157.921875 178.136719 158.253906 178.691406 C 156.410156 177.074219 154.613281 175.429688 152.859375 173.65625 C 152.304688 173.097656 151.75 172.523438 151.171875 171.96875 C 151.304688 171.921875 151.460938 171.902344 151.636719 171.902344 Z M 121.316406 174.054688 C 121.871094 172.324219 121.980469 170.480469 123.292969 169.105469 C 125.023438 167.304688 127.621094 166.660156 129.507812 165.019531 C 129.597656 165.0625 129.707031 165.085938 129.839844 165.042969 C 132.992188 164.042969 135.945312 163.84375 139.117188 164.84375 C 142.070312 165.773438 144.667969 167.550781 147 169.527344 C 151.0625 172.945312 154.523438 177.472656 159.164062 180.160156 C 159.675781 180.933594 160.207031 181.691406 160.785156 182.445312 C 162.339844 184.507812 164.046875 186.464844 165.933594 188.238281 C 167.796875 190.015625 169.90625 192.011719 172.214844 193.1875 C 172.703125 193.433594 173.304688 192.789062 172.835938 192.367188 C 170.882812 190.613281 168.6875 189.191406 166.800781 187.371094 C 164.824219 185.484375 162.980469 183.421875 161.359375 181.203125 C 158.296875 177.007812 155.921875 172.324219 154.367188 167.351562 C 153.4375 164.355469 152.816406 161.269531 152.347656 158.160156 C 151.90625 155.117188 151.238281 151.789062 152.015625 148.75 C 152.660156 146.238281 154.078125 144.019531 154.945312 141.601562 C 155.300781 140.625 155.566406 139.601562 155.632812 138.558594 C 155.679688 138.027344 155.457031 137.226562 155.613281 136.71875 C 156.300781 134.363281 157.789062 136.316406 158.320312 137.007812 C 158.519531 137.273438 158.917969 136.9375 158.785156 136.652344 C 158.207031 135.585938 156.832031 133.964844 155.5 134.917969 C 154.191406 135.851562 154.855469 138.582031 154.546875 139.890625 C 154.101562 141.734375 153.214844 143.421875 152.414062 145.152344 C 152.148438 144.132812 151.726562 143.089844 151.4375 142.113281 C 151.371094 141.890625 151.015625 141.976562 151.082031 142.199219 C 151.394531 143.421875 151.570312 144.820312 152.039062 146.019531 C 151.972656 146.195312 151.882812 146.351562 151.816406 146.527344 C 151.617188 147.039062 151.4375 147.570312 151.285156 148.082031 C 150.152344 145.796875 148.484375 143.109375 148.464844 140.578125 C 148.464844 140.359375 148.109375 140.359375 148.109375 140.578125 C 148.042969 143.445312 149.664062 146.441406 150.996094 148.925781 C 151.015625 148.96875 151.039062 148.992188 151.0625 149.015625 C 150.75 150.480469 150.707031 151.988281 150.816406 153.566406 C 151.214844 159.136719 152.214844 164.597656 154.035156 169.746094 C 151.90625 164.464844 149.527344 159.226562 148.332031 153.675781 C 148.285156 153.453125 147.929688 153.542969 147.976562 153.765625 C 148.664062 157.429688 149.882812 160.890625 151.214844 164.375 C 151.726562 165.730469 152.191406 167.171875 152.703125 168.617188 C 152.148438 167.640625 151.617188 166.660156 151.105469 165.664062 C 149.242188 162.066406 147.175781 158.40625 146.421875 154.363281 C 145.691406 150.523438 145.421875 146.105469 145.84375 142.222656 C 146.066406 140.179688 146.777344 138.027344 148.375 136.671875 C 150.085938 135.230469 152.394531 135.273438 154.125 136.605469 C 154.390625 136.828125 154.679688 136.382812 154.480469 136.164062 C 152.214844 133.5 148.242188 134.851562 146.445312 137.339844 C 143.804688 140.980469 144.46875 146.441406 144.734375 150.636719 C 144.890625 153.011719 145.222656 155.386719 145.976562 157.648438 C 146.753906 159.914062 147.886719 162.066406 148.953125 164.199219 C 150.152344 166.59375 151.414062 168.992188 152.835938 171.257812 C 152.746094 171.210938 152.683594 171.191406 152.570312 171.167969 C 152.304688 171.125 152.015625 171.078125 151.726562 171.078125 C 151.351562 171.058594 150.816406 171.011719 150.484375 171.234375 C 149.019531 169.792969 147.507812 168.417969 145.84375 167.171875 C 141.425781 163.867188 134.765625 161.222656 129.460938 164.109375 C 129.308594 164.199219 129.242188 164.332031 129.242188 164.488281 C 126.730469 166.460938 123.046875 166.972656 121.539062 170.058594 C 120.714844 171.746094 120.292969 173.722656 119.628906 175.472656 C 119.007812 177.160156 119.449219 178.40625 120.316406 179.914062 C 120.648438 180.492188 121.558594 179.960938 121.207031 179.382812 C 120.515625 178.226562 120.117188 177.183594 120.5625 175.851562 C 120.78125 175.273438 121.09375 174.699219 121.316406 174.054688 Z M 127.574219 191.457031 C 125.023438 190.679688 123.359375 188.0625 122.449219 185.21875 C 122.425781 185.195312 122.382812 185.195312 122.359375 185.175781 C 122.160156 185.066406 122.179688 184.84375 122.292969 184.710938 C 121.738281 182.777344 121.515625 180.757812 121.582031 179.203125 C 121.648438 177.917969 121.980469 176.71875 122.582031 175.5625 C 123.378906 174.078125 123.824219 172.722656 124.222656 171.078125 C 124.691406 169.125 125.421875 167.261719 127.464844 166.550781 C 127.773438 166.441406 127.886719 166.90625 127.597656 167.039062 C 125 168.105469 125.179688 171.234375 124.578125 173.476562 C 124.222656 174.785156 123.558594 175.851562 123.09375 177.027344 C 129.261719 179.246094 135.433594 181.492188 141.605469 183.734375 C 144.734375 184.863281 147.886719 186.019531 151.015625 187.171875 C 154.015625 188.285156 156.964844 189.527344 160.09375 190.238281 C 160.25 190.257812 160.183594 190.480469 160.027344 190.457031 C 153.679688 189.257812 147.507812 186.527344 141.449219 184.355469 C 135.257812 182.132812 129.0625 179.914062 122.871094 177.671875 C 122.691406 178.226562 122.582031 178.828125 122.558594 179.46875 C 122.535156 181.355469 122.871094 183.332031 123.601562 185.128906 C 125.777344 186.308594 128.0625 187.285156 130.4375 187.996094 C 132.703125 188.683594 135.035156 189.039062 137.34375 189.546875 C 139.5625 190.058594 141.273438 191.035156 143.179688 192.257812 C 145.355469 193.632812 147.753906 194.632812 150.261719 195.1875 C 150.394531 195.207031 150.351562 195.429688 150.195312 195.410156 C 147.886719 194.941406 145.734375 194.234375 143.667969 193.078125 C 141.316406 191.746094 139.316406 190.523438 136.632812 189.992188 C 132.191406 189.105469 128.019531 188.0625 124.023438 186.0625 C 124.933594 187.90625 126.222656 189.527344 127.953125 190.660156 C 128.351562 190.902344 128.085938 191.613281 127.574219 191.457031 Z M 209.664062 158.980469 C 209.839844 159.335938 210.039062 159.824219 210.308594 160.179688 C 208.929688 160.847656 207.644531 161.644531 206.464844 162.667969 C 204.070312 164.753906 202.203125 167.328125 199.410156 168.859375 C 200.117188 167.75 200.828125 166.660156 201.605469 165.597656 C 203.738281 162.6875 206.644531 160.359375 208.976562 157.605469 C 209.152344 158.09375 209.441406 158.539062 209.664062 158.980469 Z M 211.238281 153.386719 C 208.441406 157.894531 204.003906 160.914062 200.804688 165.085938 C 199.097656 167.304688 197.609375 169.703125 196.101562 172.054688 C 194.367188 174.71875 192.328125 177.359375 190.929688 180.179688 C 190.707031 180.648438 191.328125 181.203125 191.683594 180.757812 C 192.105469 180.226562 192.527344 179.691406 192.90625 179.117188 C 192.972656 179.183594 193.105469 179.203125 193.214844 179.117188 C 195.613281 177.117188 198.476562 175.695312 200.785156 173.585938 C 203.160156 171.390625 204.378906 168.171875 207.109375 166.351562 C 207.308594 166.21875 207.132812 165.90625 206.910156 166.019531 C 204.226562 167.726562 202.960938 170.613281 200.742188 172.8125 C 198.71875 174.832031 195.835938 175.898438 193.769531 177.851562 C 194.835938 176.207031 195.835938 174.496094 196.878906 172.878906 C 197.523438 171.855469 198.164062 170.835938 198.808594 169.8125 C 198.855469 169.8125 198.898438 169.8125 198.941406 169.8125 C 201.40625 169.015625 203.226562 167.21875 205.023438 165.464844 C 207.445312 163.089844 209.886719 161.335938 213.125 160.222656 C 214.457031 159.78125 215.855469 159.25 217.253906 159.003906 C 219.207031 158.671875 219.765625 160.648438 221.007812 161.644531 C 222.847656 163.15625 225.535156 163.464844 227.089844 165.332031 C 226.957031 165.332031 226.84375 165.332031 226.710938 165.332031 C 225.203125 165.261719 223.757812 165.128906 222.25 165.351562 C 215.835938 166.261719 211.015625 171.011719 207.199219 175.898438 C 207.042969 176.097656 207.308594 176.40625 207.488281 176.183594 C 210.527344 172.542969 214.082031 169.082031 218.585938 167.394531 C 220.164062 166.796875 221.785156 166.460938 223.449219 166.394531 C 221.628906 168.214844 219.851562 169.878906 217.722656 171.414062 C 215.789062 172.8125 213.816406 174.1875 212.148438 175.875 C 210.242188 177.804688 209.21875 180.136719 208.019531 182.535156 C 206.488281 185.640625 204.179688 188.039062 200.894531 189.257812 C 200.71875 189.328125 200.804688 189.59375 200.960938 189.527344 C 203.359375 188.683594 205.445312 187.285156 206.976562 185.242188 C 208.953125 182.578125 209.753906 179.269531 212.039062 176.785156 C 213.949219 174.699219 216.34375 173.144531 218.632812 171.480469 C 220.585938 170.058594 222.847656 168.480469 224.113281 166.351562 C 224.492188 166.351562 224.871094 166.351562 225.269531 166.394531 C 226.402344 166.484375 227.53125 166.640625 228.664062 166.460938 C 229.109375 166.394531 232.328125 165.664062 232.4375 166.707031 C 232.351562 166.640625 232.214844 166.640625 232.128906 166.75 C 229.929688 169.304688 227.753906 171.589844 224.871094 173.386719 C 224.667969 173.523438 224.847656 173.808594 225.046875 173.699219 C 227.753906 172.253906 230.375 170.234375 232.128906 167.683594 C 232.171875 168.0625 232.683594 168.371094 232.992188 168.015625 C 234.058594 166.773438 233.125 165.109375 231.59375 164.84375 C 230.53125 164.640625 229.417969 164.953125 228.308594 165.175781 C 228.308594 165.175781 228.308594 165.152344 228.289062 165.152344 C 226.890625 162.734375 224.027344 162.46875 221.9375 160.914062 C 220.828125 160.09375 220.40625 158.492188 219.097656 157.9375 C 217.855469 157.429688 216.410156 157.960938 215.191406 158.316406 C 213.835938 158.714844 212.527344 159.160156 211.238281 159.714844 C 211.128906 159.25 210.796875 158.78125 210.527344 158.425781 C 210.195312 157.960938 209.796875 157.472656 209.285156 157.183594 C 210.195312 156.074219 210.996094 154.898438 211.617188 153.566406 C 211.726562 153.367188 211.394531 153.144531 211.238281 153.386719 " fill-opacity="1" fill-rule="nonzero"/></g></svg>